<mxfile host="app.diagrams.net" agent="Mozilla/5.0 (Windows NT 10.0; Win64; x64) AppleWebKit/537.36 (KHTML, like Gecko) Chrome/132.0.0.0 Safari/537.36" version="26.0.16" pages="5">
  <diagram id="I4gj3SJQVTPy2vi3ndgh" name="技术架构（现有）">
    <mxGraphModel dx="2608" dy="1787" grid="1" gridSize="10" guides="1" tooltips="1" connect="1" arrows="1" fold="1" page="1" pageScale="1" pageWidth="827" pageHeight="1169" math="0" shadow="0">
      <root>
        <mxCell id="0" />
        <mxCell id="1" parent="0" />
        <mxCell id="7hAGgNz5ZOwkAVFzL6px-1" value="数据应用" style="rounded=0;whiteSpace=wrap;html=1;fillColor=#eeeeee;strokeColor=#36393d;verticalAlign=top;fontStyle=1;fontSize=22;" vertex="1" parent="1">
          <mxGeometry x="670" y="-390" width="324.57" height="540" as="geometry" />
        </mxCell>
        <mxCell id="7hAGgNz5ZOwkAVFzL6px-2" value="实时计算" style="rounded=0;whiteSpace=wrap;html=1;fillColor=#eeeeee;horizontal=1;verticalAlign=bottom;fontSize=22;strokeColor=#36393d;fontStyle=1" vertex="1" parent="1">
          <mxGeometry x="-860" y="334.5" width="1090" height="305.5" as="geometry" />
        </mxCell>
        <mxCell id="7hAGgNz5ZOwkAVFzL6px-3" value="离线计算" style="rounded=0;whiteSpace=wrap;html=1;fillColor=#f5f5f5;fontColor=#333333;strokeColor=#666666;horizontal=1;verticalAlign=top;fontSize=22;fontStyle=1" vertex="1" parent="1">
          <mxGeometry x="-860" y="-70" width="1080" height="380" as="geometry" />
        </mxCell>
        <mxCell id="7hAGgNz5ZOwkAVFzL6px-4" style="rounded=0;orthogonalLoop=1;jettySize=auto;html=1;entryX=0;entryY=0.5;entryDx=0;entryDy=0;strokeWidth=2;exitX=1.005;exitY=0.815;exitDx=0;exitDy=0;exitPerimeter=0;" edge="1" parent="1" source="7hAGgNz5ZOwkAVFzL6px-8" target="7hAGgNz5ZOwkAVFzL6px-28">
          <mxGeometry relative="1" as="geometry" />
        </mxCell>
        <mxCell id="7hAGgNz5ZOwkAVFzL6px-5" value="实时采集" style="edgeLabel;html=1;align=center;verticalAlign=middle;resizable=0;points=[];fontSize=22;" vertex="1" connectable="0" parent="7hAGgNz5ZOwkAVFzL6px-4">
          <mxGeometry x="-0.0569" y="1" relative="1" as="geometry">
            <mxPoint as="offset" />
          </mxGeometry>
        </mxCell>
        <mxCell id="7hAGgNz5ZOwkAVFzL6px-6" style="rounded=0;orthogonalLoop=1;jettySize=auto;html=1;entryX=0;entryY=0.5;entryDx=0;entryDy=0;strokeWidth=2;exitX=0.987;exitY=0.308;exitDx=0;exitDy=0;exitPerimeter=0;" edge="1" parent="1" source="7hAGgNz5ZOwkAVFzL6px-8" target="7hAGgNz5ZOwkAVFzL6px-15">
          <mxGeometry relative="1" as="geometry" />
        </mxCell>
        <mxCell id="7hAGgNz5ZOwkAVFzL6px-7" value="定时采集" style="edgeLabel;html=1;align=center;verticalAlign=middle;resizable=0;points=[];fontSize=16;" vertex="1" connectable="0" parent="7hAGgNz5ZOwkAVFzL6px-6">
          <mxGeometry x="0.036" y="-13" relative="1" as="geometry">
            <mxPoint y="-15" as="offset" />
          </mxGeometry>
        </mxCell>
        <mxCell id="7hAGgNz5ZOwkAVFzL6px-8" value="业务库" style="rounded=0;whiteSpace=wrap;html=1;fillColor=#f5f5f5;fontColor=#333333;strokeColor=#666666;fontSize=22;verticalAlign=top;fontStyle=1" vertex="1" parent="1">
          <mxGeometry x="-1390" y="-70" width="400" height="710" as="geometry" />
        </mxCell>
        <mxCell id="7hAGgNz5ZOwkAVFzL6px-9" style="edgeStyle=orthogonalEdgeStyle;rounded=0;orthogonalLoop=1;jettySize=auto;html=1;curved=1;strokeWidth=2;" edge="1" parent="1" source="7hAGgNz5ZOwkAVFzL6px-13" target="7hAGgNz5ZOwkAVFzL6px-16">
          <mxGeometry relative="1" as="geometry">
            <mxPoint x="346.95" y="288.02" as="sourcePoint" />
            <mxPoint x="-49.999999999999815" y="560" as="targetPoint" />
          </mxGeometry>
        </mxCell>
        <mxCell id="7hAGgNz5ZOwkAVFzL6px-10" value="读取维度数据" style="edgeLabel;html=1;align=center;verticalAlign=middle;resizable=0;points=[];fontSize=16;" vertex="1" connectable="0" parent="7hAGgNz5ZOwkAVFzL6px-9">
          <mxGeometry x="0.4746" y="20" relative="1" as="geometry">
            <mxPoint x="75" as="offset" />
          </mxGeometry>
        </mxCell>
        <mxCell id="7hAGgNz5ZOwkAVFzL6px-11" style="edgeStyle=none;curved=1;rounded=0;orthogonalLoop=1;jettySize=auto;html=1;entryX=0;entryY=0.5;entryDx=0;entryDy=0;fontSize=12;startSize=8;endSize=8;" edge="1" parent="1" source="7hAGgNz5ZOwkAVFzL6px-13" target="7hAGgNz5ZOwkAVFzL6px-21">
          <mxGeometry relative="1" as="geometry" />
        </mxCell>
        <mxCell id="7hAGgNz5ZOwkAVFzL6px-12" value="JDBC" style="edgeLabel;html=1;align=center;verticalAlign=middle;resizable=0;points=[];fontSize=16;" vertex="1" connectable="0" parent="7hAGgNz5ZOwkAVFzL6px-11">
          <mxGeometry x="-0.1954" y="-3" relative="1" as="geometry">
            <mxPoint x="-1" as="offset" />
          </mxGeometry>
        </mxCell>
        <mxCell id="7hAGgNz5ZOwkAVFzL6px-13" value="ADB MySQL" style="shape=cylinder3;whiteSpace=wrap;html=1;boundedLbl=1;backgroundOutline=1;size=15;fillColor=#d5e8d4;strokeColor=#82b366;fontSize=22;fontStyle=0;strokeWidth=2;" vertex="1" parent="1">
          <mxGeometry x="290" y="214.5" width="220" height="120" as="geometry" />
        </mxCell>
        <mxCell id="7hAGgNz5ZOwkAVFzL6px-14" style="edgeStyle=orthogonalEdgeStyle;rounded=0;orthogonalLoop=1;jettySize=auto;html=1;entryX=0.5;entryY=0;entryDx=0;entryDy=0;strokeWidth=2;" edge="1" parent="1" source="7hAGgNz5ZOwkAVFzL6px-15" target="7hAGgNz5ZOwkAVFzL6px-16">
          <mxGeometry relative="1" as="geometry" />
        </mxCell>
        <mxCell id="7hAGgNz5ZOwkAVFzL6px-15" value="数据中台&lt;br style=&quot;font-size: 22px;&quot;&gt;" style="rounded=0;whiteSpace=wrap;html=1;fontStyle=0;fillColor=#dae8fc;strokeColor=#6c8ebf;fontSize=22;strokeWidth=2;horizontal=1;verticalAlign=top;" vertex="1" parent="1">
          <mxGeometry x="-525" y="30" width="480" height="230" as="geometry" />
        </mxCell>
        <mxCell id="7hAGgNz5ZOwkAVFzL6px-16" value="Flink 实时计算" style="rounded=0;whiteSpace=wrap;html=1;fontStyle=0;fontSize=22;fillColor=#ffe6cc;strokeColor=#d79b00;" vertex="1" parent="1">
          <mxGeometry x="-275" y="455.75" width="230" height="110" as="geometry" />
        </mxCell>
        <mxCell id="7hAGgNz5ZOwkAVFzL6px-17" style="edgeStyle=orthogonalEdgeStyle;rounded=0;orthogonalLoop=1;jettySize=auto;html=1;entryX=0.5;entryY=0;entryDx=0;entryDy=0;entryPerimeter=0;strokeWidth=2;" edge="1" parent="1" source="7hAGgNz5ZOwkAVFzL6px-15" target="7hAGgNz5ZOwkAVFzL6px-13">
          <mxGeometry relative="1" as="geometry" />
        </mxCell>
        <mxCell id="7hAGgNz5ZOwkAVFzL6px-18" value="定时写入" style="edgeLabel;html=1;align=center;verticalAlign=middle;resizable=0;points=[];fontSize=16;" vertex="1" connectable="0" parent="7hAGgNz5ZOwkAVFzL6px-17">
          <mxGeometry x="-0.2321" y="1" relative="1" as="geometry">
            <mxPoint as="offset" />
          </mxGeometry>
        </mxCell>
        <mxCell id="7hAGgNz5ZOwkAVFzL6px-19" style="edgeStyle=orthogonalEdgeStyle;rounded=0;orthogonalLoop=1;jettySize=auto;html=1;entryX=0.5;entryY=1;entryDx=0;entryDy=0;entryPerimeter=0;curved=1;strokeWidth=2;" edge="1" parent="1" source="7hAGgNz5ZOwkAVFzL6px-16" target="7hAGgNz5ZOwkAVFzL6px-13">
          <mxGeometry relative="1" as="geometry" />
        </mxCell>
        <mxCell id="7hAGgNz5ZOwkAVFzL6px-20" value="实时写入计算结果" style="edgeLabel;html=1;align=center;verticalAlign=middle;resizable=0;points=[];fontSize=16;" vertex="1" connectable="0" parent="7hAGgNz5ZOwkAVFzL6px-19">
          <mxGeometry x="-0.276" y="43" relative="1" as="geometry">
            <mxPoint as="offset" />
          </mxGeometry>
        </mxCell>
        <mxCell id="7hAGgNz5ZOwkAVFzL6px-21" value="帆软报表" style="rounded=0;whiteSpace=wrap;html=1;fillColor=#fff2cc;strokeColor=#d6b656;strokeWidth=2;fontSize=22;fontStyle=1" vertex="1" parent="1">
          <mxGeometry x="759.9999999999999" y="224.5" width="200" height="100" as="geometry" />
        </mxCell>
        <mxCell id="7hAGgNz5ZOwkAVFzL6px-22" value="IMOS系统" style="rounded=0;whiteSpace=wrap;html=1;fillColor=#e1d5e7;strokeColor=#9673a6;fontSize=22;fontStyle=0;strokeWidth=2;" vertex="1" parent="1">
          <mxGeometry x="739.5699999999999" y="-325" width="190" height="90" as="geometry" />
        </mxCell>
        <mxCell id="7hAGgNz5ZOwkAVFzL6px-23" value="OMS系统" style="rounded=0;whiteSpace=wrap;html=1;fillColor=#fad9d5;strokeColor=#ae4132;fontSize=22;fontStyle=0;strokeWidth=2;" vertex="1" parent="1">
          <mxGeometry x="737.29" y="-190" width="190" height="90" as="geometry" />
        </mxCell>
        <mxCell id="7hAGgNz5ZOwkAVFzL6px-24" value="RMS系统" style="rounded=0;whiteSpace=wrap;html=1;fillColor=#bac8d3;strokeColor=#23445d;fontSize=22;fontStyle=0;strokeWidth=2;" vertex="1" parent="1">
          <mxGeometry x="739.5699999999999" y="-74.5" width="190" height="90" as="geometry" />
        </mxCell>
        <mxCell id="7hAGgNz5ZOwkAVFzL6px-25" value="会员业务系统" style="rounded=0;whiteSpace=wrap;html=1;fillColor=#ffe6cc;strokeColor=#d79b00;fontSize=22;fontStyle=0;strokeWidth=2;" vertex="1" parent="1">
          <mxGeometry x="737.29" y="40" width="190" height="90" as="geometry" />
        </mxCell>
        <mxCell id="7hAGgNz5ZOwkAVFzL6px-26" style="edgeStyle=orthogonalEdgeStyle;rounded=0;orthogonalLoop=1;jettySize=auto;html=1;entryX=0;entryY=0.5;entryDx=0;entryDy=0;" edge="1" parent="1" source="7hAGgNz5ZOwkAVFzL6px-27" target="7hAGgNz5ZOwkAVFzL6px-16">
          <mxGeometry relative="1" as="geometry" />
        </mxCell>
        <mxCell id="7hAGgNz5ZOwkAVFzL6px-27" value="Kafka" style="shape=cylinder3;whiteSpace=wrap;html=1;boundedLbl=1;backgroundOutline=1;size=15;rotation=90;fillColor=#d5e8d4;strokeColor=#82b366;fontSize=22;horizontal=0;" vertex="1" parent="1">
          <mxGeometry x="-505" y="437" width="90" height="147.5" as="geometry" />
        </mxCell>
        <mxCell id="7hAGgNz5ZOwkAVFzL6px-28" value="Debezium&amp;nbsp;" style="rounded=0;whiteSpace=wrap;html=1;fillColor=#dae8fc;strokeColor=#6c8ebf;fontStyle=0;fontSize=22;" vertex="1" parent="1">
          <mxGeometry x="-775" y="474.5" width="150" height="72.5" as="geometry" />
        </mxCell>
        <mxCell id="7hAGgNz5ZOwkAVFzL6px-29" value="PG-IMOS" style="shape=cylinder3;whiteSpace=wrap;html=1;boundedLbl=1;backgroundOutline=1;size=15;fillColor=#d5e8d4;strokeColor=#82b366;fontSize=22;" vertex="1" parent="1">
          <mxGeometry x="-1360" y="20" width="150" height="100" as="geometry" />
        </mxCell>
        <mxCell id="7hAGgNz5ZOwkAVFzL6px-30" style="edgeStyle=orthogonalEdgeStyle;rounded=0;orthogonalLoop=1;jettySize=auto;html=1;entryX=0.5;entryY=1;entryDx=0;entryDy=0;entryPerimeter=0;" edge="1" parent="1" source="7hAGgNz5ZOwkAVFzL6px-28" target="7hAGgNz5ZOwkAVFzL6px-27">
          <mxGeometry relative="1" as="geometry" />
        </mxCell>
        <mxCell id="7hAGgNz5ZOwkAVFzL6px-31" value="PG-POS" style="shape=cylinder3;whiteSpace=wrap;html=1;boundedLbl=1;backgroundOutline=1;size=15;fillColor=#d5e8d4;strokeColor=#82b366;fontSize=22;" vertex="1" parent="1">
          <mxGeometry x="-1360" y="160" width="150" height="100" as="geometry" />
        </mxCell>
        <mxCell id="7hAGgNz5ZOwkAVFzL6px-32" value="PG-GIMS" style="shape=cylinder3;whiteSpace=wrap;html=1;boundedLbl=1;backgroundOutline=1;size=15;fillColor=#d5e8d4;strokeColor=#82b366;fontSize=22;" vertex="1" parent="1">
          <mxGeometry x="-1160" y="165.5" width="150" height="100" as="geometry" />
        </mxCell>
        <mxCell id="7hAGgNz5ZOwkAVFzL6px-33" value="PG-CRM" style="shape=cylinder3;whiteSpace=wrap;html=1;boundedLbl=1;backgroundOutline=1;size=15;fillColor=#d5e8d4;strokeColor=#82b366;fontSize=22;" vertex="1" parent="1">
          <mxGeometry x="-1360" y="310" width="150" height="100" as="geometry" />
        </mxCell>
        <mxCell id="7hAGgNz5ZOwkAVFzL6px-34" value="PG-RMS" style="shape=cylinder3;whiteSpace=wrap;html=1;boundedLbl=1;backgroundOutline=1;size=15;fillColor=#d5e8d4;strokeColor=#82b366;fontSize=22;" vertex="1" parent="1">
          <mxGeometry x="-1160" y="20" width="150" height="100" as="geometry" />
        </mxCell>
        <mxCell id="7hAGgNz5ZOwkAVFzL6px-35" value="PG-EWM" style="shape=cylinder3;whiteSpace=wrap;html=1;boundedLbl=1;backgroundOutline=1;size=15;fillColor=#d5e8d4;strokeColor=#82b366;fontSize=22;" vertex="1" parent="1">
          <mxGeometry x="-1160" y="310" width="150" height="100" as="geometry" />
        </mxCell>
        <mxCell id="7hAGgNz5ZOwkAVFzL6px-36" value="PG-ICC" style="shape=cylinder3;whiteSpace=wrap;html=1;boundedLbl=1;backgroundOutline=1;size=15;fillColor=#d5e8d4;strokeColor=#82b366;fontSize=22;" vertex="1" parent="1">
          <mxGeometry x="-1370" y="470" width="150" height="100" as="geometry" />
        </mxCell>
        <mxCell id="7hAGgNz5ZOwkAVFzL6px-37" value="PG-OMS" style="shape=cylinder3;whiteSpace=wrap;html=1;boundedLbl=1;backgroundOutline=1;size=15;fillColor=#d5e8d4;strokeColor=#82b366;fontSize=22;" vertex="1" parent="1">
          <mxGeometry x="-1170" y="470" width="150" height="100" as="geometry" />
        </mxCell>
        <mxCell id="7hAGgNz5ZOwkAVFzL6px-38" value="Dataphin" style="rounded=0;whiteSpace=wrap;html=1;fontSize=22;fillColor=#ffe6cc;strokeColor=#d79b00;" vertex="1" parent="1">
          <mxGeometry x="-425" y="80.5" width="290" height="49.5" as="geometry" />
        </mxCell>
        <mxCell id="7hAGgNz5ZOwkAVFzL6px-39" value="maxcompute" style="rounded=0;whiteSpace=wrap;html=1;fillColor=#fff2cc;strokeColor=#d6b656;fontSize=22;" vertex="1" parent="1">
          <mxGeometry x="-425" y="130" width="290" height="50" as="geometry" />
        </mxCell>
        <mxCell id="7hAGgNz5ZOwkAVFzL6px-40" value="OSS" style="rounded=0;whiteSpace=wrap;html=1;fillColor=#d5e8d4;strokeColor=#82b366;fontSize=22;" vertex="1" parent="1">
          <mxGeometry x="-425" y="180" width="290" height="50" as="geometry" />
        </mxCell>
        <mxCell id="7hAGgNz5ZOwkAVFzL6px-41" value="DataX" style="rounded=0;whiteSpace=wrap;html=1;fontSize=22;fillColor=#b0e3e6;strokeColor=#0e8088;horizontal=0;" vertex="1" parent="1">
          <mxGeometry x="-475" y="80.5" width="52" height="149.5" as="geometry" />
        </mxCell>
        <mxCell id="7hAGgNz5ZOwkAVFzL6px-42" value="DataX" style="rounded=0;whiteSpace=wrap;html=1;fontSize=22;fillColor=#b0e3e6;strokeColor=#0e8088;horizontal=0;" vertex="1" parent="1">
          <mxGeometry x="-135" y="80.5" width="52" height="149.5" as="geometry" />
        </mxCell>
        <mxCell id="7hAGgNz5ZOwkAVFzL6px-43" style="edgeStyle=orthogonalEdgeStyle;rounded=0;orthogonalLoop=1;jettySize=auto;html=1;entryX=0;entryY=0.5;entryDx=0;entryDy=0;fontSize=16;" edge="1" parent="1" source="7hAGgNz5ZOwkAVFzL6px-45" target="7hAGgNz5ZOwkAVFzL6px-1">
          <mxGeometry relative="1" as="geometry" />
        </mxCell>
        <mxCell id="7hAGgNz5ZOwkAVFzL6px-44" value="JDBC" style="edgeLabel;html=1;align=center;verticalAlign=middle;resizable=0;points=[];fontSize=16;" vertex="1" connectable="0" parent="7hAGgNz5ZOwkAVFzL6px-43">
          <mxGeometry x="0.137" y="-1" relative="1" as="geometry">
            <mxPoint as="offset" />
          </mxGeometry>
        </mxCell>
        <mxCell id="7hAGgNz5ZOwkAVFzL6px-45" value="PG-业务数据服务" style="shape=cylinder3;whiteSpace=wrap;html=1;boundedLbl=1;backgroundOutline=1;size=15;fillColor=#d5e8d4;strokeColor=#82b366;fontSize=22;fontStyle=0;strokeWidth=2;" vertex="1" parent="1">
          <mxGeometry x="304" y="-180" width="220" height="120" as="geometry" />
        </mxCell>
        <mxCell id="7hAGgNz5ZOwkAVFzL6px-46" style="edgeStyle=orthogonalEdgeStyle;rounded=0;orthogonalLoop=1;jettySize=auto;html=1;entryX=0;entryY=0.5;entryDx=0;entryDy=0;entryPerimeter=0;fontSize=12;startSize=8;endSize=8;strokeWidth=2;" edge="1" parent="1" source="7hAGgNz5ZOwkAVFzL6px-15" target="7hAGgNz5ZOwkAVFzL6px-45">
          <mxGeometry relative="1" as="geometry" />
        </mxCell>
        <mxCell id="7hAGgNz5ZOwkAVFzL6px-47" value="定时写入" style="edgeLabel;html=1;align=center;verticalAlign=middle;resizable=0;points=[];fontSize=16;" vertex="1" connectable="0" parent="7hAGgNz5ZOwkAVFzL6px-46">
          <mxGeometry x="0.0939" y="-2" relative="1" as="geometry">
            <mxPoint as="offset" />
          </mxGeometry>
        </mxCell>
        <mxCell id="7hAGgNz5ZOwkAVFzL6px-48" value="智能BI" style="rounded=0;whiteSpace=wrap;html=1;fontSize=22;fillColor=#e1d5e7;strokeColor=#9673a6;fontStyle=1" vertex="1" parent="1">
          <mxGeometry x="760" y="520" width="200" height="100" as="geometry" />
        </mxCell>
        <mxCell id="7hAGgNz5ZOwkAVFzL6px-49" style="edgeStyle=entityRelationEdgeStyle;rounded=0;orthogonalLoop=1;jettySize=auto;html=1;entryX=0;entryY=0.5;entryDx=0;entryDy=0;fontSize=12;startSize=8;endSize=8;strokeWidth=2;" edge="1" parent="1" source="7hAGgNz5ZOwkAVFzL6px-53" target="7hAGgNz5ZOwkAVFzL6px-21">
          <mxGeometry relative="1" as="geometry" />
        </mxCell>
        <mxCell id="7hAGgNz5ZOwkAVFzL6px-50" value="JDBC" style="edgeLabel;html=1;align=center;verticalAlign=middle;resizable=0;points=[];fontSize=16;" vertex="1" connectable="0" parent="7hAGgNz5ZOwkAVFzL6px-49">
          <mxGeometry x="0.1305" y="-4" relative="1" as="geometry">
            <mxPoint as="offset" />
          </mxGeometry>
        </mxCell>
        <mxCell id="7hAGgNz5ZOwkAVFzL6px-51" style="edgeStyle=none;curved=1;rounded=0;orthogonalLoop=1;jettySize=auto;html=1;fontSize=12;startSize=8;endSize=8;strokeWidth=2;" edge="1" parent="1" source="7hAGgNz5ZOwkAVFzL6px-53" target="7hAGgNz5ZOwkAVFzL6px-48">
          <mxGeometry relative="1" as="geometry" />
        </mxCell>
        <mxCell id="7hAGgNz5ZOwkAVFzL6px-52" value="JDBC" style="edgeLabel;html=1;align=center;verticalAlign=middle;resizable=0;points=[];fontSize=16;" vertex="1" connectable="0" parent="7hAGgNz5ZOwkAVFzL6px-51">
          <mxGeometry x="0.2588" y="-1" relative="1" as="geometry">
            <mxPoint as="offset" />
          </mxGeometry>
        </mxCell>
        <mxCell id="7hAGgNz5ZOwkAVFzL6px-53" value="StarRocks" style="shape=cylinder3;whiteSpace=wrap;html=1;boundedLbl=1;backgroundOutline=1;size=15;fillColor=#d5e8d4;strokeColor=#82b366;fontSize=22;fontStyle=0;strokeWidth=2;" vertex="1" parent="1">
          <mxGeometry x="340" y="510" width="220" height="120" as="geometry" />
        </mxCell>
        <mxCell id="7hAGgNz5ZOwkAVFzL6px-54" style="edgeStyle=orthogonalEdgeStyle;rounded=0;orthogonalLoop=1;jettySize=auto;html=1;entryX=0;entryY=0.5;entryDx=0;entryDy=0;entryPerimeter=0;strokeWidth=2;" edge="1" parent="1" source="7hAGgNz5ZOwkAVFzL6px-15" target="7hAGgNz5ZOwkAVFzL6px-53">
          <mxGeometry relative="1" as="geometry">
            <Array as="points">
              <mxPoint x="100" y="145" />
              <mxPoint x="100" y="570" />
            </Array>
          </mxGeometry>
        </mxCell>
      </root>
    </mxGraphModel>
  </diagram>
  <diagram name="技术架构-V1" id="8GNJ75QtfmzGKLr9Hj33">
    <mxGraphModel dx="2123" dy="1445" grid="1" gridSize="10" guides="1" tooltips="1" connect="1" arrows="1" fold="1" page="1" pageScale="1" pageWidth="1169" pageHeight="827" math="0" shadow="0">
      <root>
        <mxCell id="0" />
        <mxCell id="1" parent="0" />
        <mxCell id="2AT-N2MCOQDLUG6bidaa-14" style="edgeStyle=orthogonalEdgeStyle;rounded=0;orthogonalLoop=1;jettySize=auto;html=1;entryX=0.5;entryY=1;entryDx=0;entryDy=0;strokeWidth=2;" parent="1" source="2AT-N2MCOQDLUG6bidaa-1" target="2AT-N2MCOQDLUG6bidaa-13" edge="1">
          <mxGeometry relative="1" as="geometry" />
        </mxCell>
        <mxCell id="2AT-N2MCOQDLUG6bidaa-38" style="rounded=0;orthogonalLoop=1;jettySize=auto;html=1;exitX=0.5;exitY=1;exitDx=0;exitDy=0;entryX=0.5;entryY=0;entryDx=0;entryDy=0;shape=link;strokeWidth=2;" parent="1" source="2AT-N2MCOQDLUG6bidaa-1" target="2AT-N2MCOQDLUG6bidaa-9" edge="1">
          <mxGeometry relative="1" as="geometry" />
        </mxCell>
        <mxCell id="2AT-N2MCOQDLUG6bidaa-1" value="数据中台(私有化)" style="rounded=0;whiteSpace=wrap;html=1;fillColor=#eeeeee;strokeColor=#36393d;verticalAlign=top;fontSize=22;fontStyle=1" parent="1" vertex="1">
          <mxGeometry x="70" y="290" width="350" height="240" as="geometry" />
        </mxCell>
        <mxCell id="2AT-N2MCOQDLUG6bidaa-3" value="Dataphin" style="rounded=0;whiteSpace=wrap;html=1;fillColor=#cdeb8b;strokeColor=#36393d;fontStyle=1;fontSize=18;" parent="1" vertex="1">
          <mxGeometry x="100" y="340" width="290" height="90" as="geometry" />
        </mxCell>
        <mxCell id="2AT-N2MCOQDLUG6bidaa-4" value="MaxCompute" style="rounded=0;whiteSpace=wrap;html=1;fontStyle=1;fontSize=18;fillColor=#cce5ff;strokeColor=#36393d;" parent="1" vertex="1">
          <mxGeometry x="100" y="430" width="290" height="70" as="geometry" />
        </mxCell>
        <mxCell id="cMIVsSoi3OgTZiZN5WmO-2" style="edgeStyle=orthogonalEdgeStyle;rounded=0;orthogonalLoop=1;jettySize=auto;html=1;entryX=0;entryY=0.5;entryDx=0;entryDy=0;strokeWidth=2;" parent="1" source="2AT-N2MCOQDLUG6bidaa-5" target="cMIVsSoi3OgTZiZN5WmO-1" edge="1">
          <mxGeometry relative="1" as="geometry" />
        </mxCell>
        <mxCell id="2AT-N2MCOQDLUG6bidaa-5" value="Postgre" style="shape=cylinder3;whiteSpace=wrap;html=1;boundedLbl=1;backgroundOutline=1;size=15;fillColor=#60a917;strokeColor=#2D7600;fontColor=#ffffff;fontSize=18;" parent="1" vertex="1">
          <mxGeometry x="750" y="-25" width="200" height="120" as="geometry" />
        </mxCell>
        <mxCell id="2AT-N2MCOQDLUG6bidaa-46" style="edgeStyle=orthogonalEdgeStyle;rounded=0;orthogonalLoop=1;jettySize=auto;html=1;entryX=0;entryY=0.5;entryDx=0;entryDy=0;strokeWidth=2;" parent="1" source="2AT-N2MCOQDLUG6bidaa-6" target="2AT-N2MCOQDLUG6bidaa-44" edge="1">
          <mxGeometry relative="1" as="geometry" />
        </mxCell>
        <mxCell id="2AT-N2MCOQDLUG6bidaa-47" style="rounded=0;orthogonalLoop=1;jettySize=auto;html=1;entryX=0;entryY=0.5;entryDx=0;entryDy=0;strokeWidth=2;" parent="1" source="2AT-N2MCOQDLUG6bidaa-6" target="2AT-N2MCOQDLUG6bidaa-39" edge="1">
          <mxGeometry relative="1" as="geometry" />
        </mxCell>
        <mxCell id="2AT-N2MCOQDLUG6bidaa-6" value="SelectDB&lt;br&gt;（FBI、FR）" style="shape=cylinder3;whiteSpace=wrap;html=1;boundedLbl=1;backgroundOutline=1;size=15;fillColor=#60a917;strokeColor=#2D7600;fontColor=#ffffff;fontSize=18;" parent="1" vertex="1">
          <mxGeometry x="730" y="646" width="200" height="117" as="geometry" />
        </mxCell>
        <mxCell id="2AT-N2MCOQDLUG6bidaa-40" style="edgeStyle=orthogonalEdgeStyle;rounded=0;orthogonalLoop=1;jettySize=auto;html=1;entryX=0;entryY=0.5;entryDx=0;entryDy=0;strokeWidth=2;" parent="1" source="2AT-N2MCOQDLUG6bidaa-7" target="2AT-N2MCOQDLUG6bidaa-39" edge="1">
          <mxGeometry relative="1" as="geometry" />
        </mxCell>
        <mxCell id="2AT-N2MCOQDLUG6bidaa-43" style="rounded=0;orthogonalLoop=1;jettySize=auto;html=1;entryX=1;entryY=1;entryDx=0;entryDy=0;strokeWidth=2;" parent="1" target="2AT-N2MCOQDLUG6bidaa-13" edge="1">
          <mxGeometry relative="1" as="geometry">
            <mxPoint x="730" y="411" as="sourcePoint" />
          </mxGeometry>
        </mxCell>
        <mxCell id="2AT-N2MCOQDLUG6bidaa-7" value="ADB MySQL" style="shape=cylinder3;whiteSpace=wrap;html=1;boundedLbl=1;backgroundOutline=1;size=15;fillColor=#60a917;strokeColor=#2D7600;fontColor=#ffffff;fontSize=18;" parent="1" vertex="1">
          <mxGeometry x="735" y="349" width="200" height="124" as="geometry" />
        </mxCell>
        <mxCell id="JoqvBXKsAsW39Hu79zci-5" style="rounded=0;orthogonalLoop=1;jettySize=auto;html=1;entryX=0;entryY=0.5;entryDx=0;entryDy=0;strokeWidth=2;" parent="1" target="JoqvBXKsAsW39Hu79zci-4" edge="1">
          <mxGeometry relative="1" as="geometry">
            <mxPoint x="420" y="410" as="sourcePoint" />
          </mxGeometry>
        </mxCell>
        <mxCell id="JoqvBXKsAsW39Hu79zci-6" value="API" style="edgeLabel;html=1;align=center;verticalAlign=middle;resizable=0;points=[];fontStyle=1;fontSize=14;" parent="JoqvBXKsAsW39Hu79zci-5" vertex="1" connectable="0">
          <mxGeometry x="-0.17" relative="1" as="geometry">
            <mxPoint as="offset" />
          </mxGeometry>
        </mxCell>
        <mxCell id="2AT-N2MCOQDLUG6bidaa-9" value="数据中台(云服务)" style="rounded=0;whiteSpace=wrap;html=1;fillColor=#eeeeee;strokeColor=#36393d;verticalAlign=top;fontSize=22;fontStyle=1" parent="1" vertex="1">
          <mxGeometry x="70" y="600" width="350" height="240" as="geometry" />
        </mxCell>
        <mxCell id="2AT-N2MCOQDLUG6bidaa-10" value="DataWorks" style="rounded=0;whiteSpace=wrap;html=1;fillColor=#cdeb8b;strokeColor=#36393d;fontStyle=1;fontSize=18;" parent="1" vertex="1">
          <mxGeometry x="100" y="650" width="290" height="90" as="geometry" />
        </mxCell>
        <mxCell id="2AT-N2MCOQDLUG6bidaa-11" value="MaxCompute" style="rounded=0;whiteSpace=wrap;html=1;fontStyle=1;fontSize=18;fillColor=#cce5ff;strokeColor=#36393d;" parent="1" vertex="1">
          <mxGeometry x="100" y="740" width="290" height="70" as="geometry" />
        </mxCell>
        <mxCell id="2AT-N2MCOQDLUG6bidaa-12" style="edgeStyle=orthogonalEdgeStyle;rounded=0;orthogonalLoop=1;jettySize=auto;html=1;entryX=0.016;entryY=0.626;entryDx=0;entryDy=0;entryPerimeter=0;strokeWidth=2;" parent="1" source="2AT-N2MCOQDLUG6bidaa-9" target="2AT-N2MCOQDLUG6bidaa-6" edge="1">
          <mxGeometry relative="1" as="geometry" />
        </mxCell>
        <mxCell id="2AT-N2MCOQDLUG6bidaa-13" value="Flink" style="rounded=0;whiteSpace=wrap;html=1;fillColor=#1ba1e2;fontColor=#ffffff;strokeColor=#006EAF;fontSize=18;" parent="1" vertex="1">
          <mxGeometry x="165" y="-5" width="160" height="80" as="geometry" />
        </mxCell>
        <mxCell id="2AT-N2MCOQDLUG6bidaa-15" value="Debezium" style="rounded=0;whiteSpace=wrap;html=1;fillColor=#0050ef;fontColor=#ffffff;strokeColor=#001DBC;fontSize=18;" parent="1" vertex="1">
          <mxGeometry x="-360" y="-5" width="160" height="80" as="geometry" />
        </mxCell>
        <mxCell id="2AT-N2MCOQDLUG6bidaa-19" style="edgeStyle=orthogonalEdgeStyle;rounded=0;orthogonalLoop=1;jettySize=auto;html=1;entryX=0;entryY=0.5;entryDx=0;entryDy=0;strokeWidth=2;" parent="1" source="2AT-N2MCOQDLUG6bidaa-17" target="2AT-N2MCOQDLUG6bidaa-13" edge="1">
          <mxGeometry relative="1" as="geometry" />
        </mxCell>
        <mxCell id="2AT-N2MCOQDLUG6bidaa-17" value="kafka" style="shape=cylinder3;whiteSpace=wrap;html=1;boundedLbl=1;backgroundOutline=1;size=15;direction=south;fillColor=#60a917;fontColor=#ffffff;strokeColor=#2D7600;fontSize=18;" parent="1" vertex="1">
          <mxGeometry x="-90" y="-10" width="150" height="90" as="geometry" />
        </mxCell>
        <mxCell id="2AT-N2MCOQDLUG6bidaa-18" style="edgeStyle=orthogonalEdgeStyle;rounded=0;orthogonalLoop=1;jettySize=auto;html=1;entryX=0.5;entryY=1;entryDx=0;entryDy=0;entryPerimeter=0;strokeWidth=2;" parent="1" source="2AT-N2MCOQDLUG6bidaa-15" target="2AT-N2MCOQDLUG6bidaa-17" edge="1">
          <mxGeometry relative="1" as="geometry" />
        </mxCell>
        <mxCell id="2AT-N2MCOQDLUG6bidaa-32" style="edgeStyle=orthogonalEdgeStyle;rounded=0;orthogonalLoop=1;jettySize=auto;html=1;entryX=0;entryY=0.5;entryDx=0;entryDy=0;strokeWidth=2;exitX=1.021;exitY=0.735;exitDx=0;exitDy=0;exitPerimeter=0;" parent="1" source="2AT-N2MCOQDLUG6bidaa-20" target="2AT-N2MCOQDLUG6bidaa-1" edge="1">
          <mxGeometry relative="1" as="geometry" />
        </mxCell>
        <mxCell id="2AT-N2MCOQDLUG6bidaa-33" style="edgeStyle=orthogonalEdgeStyle;rounded=0;orthogonalLoop=1;jettySize=auto;html=1;entryX=0;entryY=0.5;entryDx=0;entryDy=0;strokeWidth=2;" parent="1" target="2AT-N2MCOQDLUG6bidaa-15" edge="1">
          <mxGeometry relative="1" as="geometry">
            <mxPoint x="-530" y="35" as="sourcePoint" />
          </mxGeometry>
        </mxCell>
        <mxCell id="2AT-N2MCOQDLUG6bidaa-20" value="业务数据" style="rounded=0;whiteSpace=wrap;html=1;fillColor=#eeeeee;strokeColor=#36393d;verticalAlign=top;fontStyle=1;fontSize=22;" parent="1" vertex="1">
          <mxGeometry x="-980" y="-40" width="440" height="610" as="geometry" />
        </mxCell>
        <mxCell id="2AT-N2MCOQDLUG6bidaa-22" value="EWM" style="shape=cylinder3;whiteSpace=wrap;html=1;boundedLbl=1;backgroundOutline=1;size=15;fillColor=#60a917;fontColor=#ffffff;strokeColor=#2D7600;fontSize=18;" parent="1" vertex="1">
          <mxGeometry x="-744" y="45" width="160" height="90" as="geometry" />
        </mxCell>
        <mxCell id="2AT-N2MCOQDLUG6bidaa-25" value="GIMS" style="shape=cylinder3;whiteSpace=wrap;html=1;boundedLbl=1;backgroundOutline=1;size=15;fillColor=#60a917;fontColor=#ffffff;strokeColor=#2D7600;fontSize=18;" parent="1" vertex="1">
          <mxGeometry x="-944" y="45" width="160" height="90" as="geometry" />
        </mxCell>
        <mxCell id="2AT-N2MCOQDLUG6bidaa-26" value="IMOS" style="shape=cylinder3;whiteSpace=wrap;html=1;boundedLbl=1;backgroundOutline=1;size=15;fillColor=#60a917;fontColor=#ffffff;strokeColor=#2D7600;fontSize=18;" parent="1" vertex="1">
          <mxGeometry x="-944" y="170" width="160" height="90" as="geometry" />
        </mxCell>
        <mxCell id="2AT-N2MCOQDLUG6bidaa-27" value="POS" style="shape=cylinder3;whiteSpace=wrap;html=1;boundedLbl=1;backgroundOutline=1;size=15;fillColor=#60a917;fontColor=#ffffff;strokeColor=#2D7600;fontSize=18;" parent="1" vertex="1">
          <mxGeometry x="-744" y="170" width="160" height="90" as="geometry" />
        </mxCell>
        <mxCell id="2AT-N2MCOQDLUG6bidaa-28" value="OMS" style="shape=cylinder3;whiteSpace=wrap;html=1;boundedLbl=1;backgroundOutline=1;size=15;fillColor=#60a917;fontColor=#ffffff;strokeColor=#2D7600;fontSize=18;" parent="1" vertex="1">
          <mxGeometry x="-944" y="300" width="160" height="90" as="geometry" />
        </mxCell>
        <mxCell id="2AT-N2MCOQDLUG6bidaa-29" value="SAP" style="shape=cylinder3;whiteSpace=wrap;html=1;boundedLbl=1;backgroundOutline=1;size=15;fillColor=#60a917;fontColor=#ffffff;strokeColor=#2D7600;fontSize=18;" parent="1" vertex="1">
          <mxGeometry x="-744" y="298" width="160" height="90" as="geometry" />
        </mxCell>
        <mxCell id="2AT-N2MCOQDLUG6bidaa-30" value="CRM" style="shape=cylinder3;whiteSpace=wrap;html=1;boundedLbl=1;backgroundOutline=1;size=15;fillColor=#60a917;fontColor=#ffffff;strokeColor=#2D7600;fontSize=18;" parent="1" vertex="1">
          <mxGeometry x="-944" y="440" width="160" height="90" as="geometry" />
        </mxCell>
        <mxCell id="2AT-N2MCOQDLUG6bidaa-31" value="DFM" style="shape=cylinder3;whiteSpace=wrap;html=1;boundedLbl=1;backgroundOutline=1;size=15;fillColor=#60a917;fontColor=#ffffff;strokeColor=#2D7600;fontSize=18;" parent="1" vertex="1">
          <mxGeometry x="-744" y="440" width="160" height="90" as="geometry" />
        </mxCell>
        <mxCell id="2AT-N2MCOQDLUG6bidaa-34" style="rounded=0;orthogonalLoop=1;jettySize=auto;html=1;entryX=0;entryY=0.5;entryDx=0;entryDy=0;entryPerimeter=0;strokeWidth=2;" parent="1" source="2AT-N2MCOQDLUG6bidaa-13" target="2AT-N2MCOQDLUG6bidaa-5" edge="1">
          <mxGeometry relative="1" as="geometry" />
        </mxCell>
        <mxCell id="2AT-N2MCOQDLUG6bidaa-39" value="FineReport" style="rounded=0;whiteSpace=wrap;html=1;fillColor=#d5e8d4;strokeColor=#82b366;fontSize=18;fontStyle=1;gradientColor=#97d077;" parent="1" vertex="1">
          <mxGeometry x="1130" y="364" width="190" height="95" as="geometry" />
        </mxCell>
        <mxCell id="2AT-N2MCOQDLUG6bidaa-41" style="edgeStyle=orthogonalEdgeStyle;rounded=0;orthogonalLoop=1;jettySize=auto;html=1;entryX=0;entryY=0.5;entryDx=0;entryDy=0;entryPerimeter=0;strokeWidth=2;" parent="1" source="2AT-N2MCOQDLUG6bidaa-1" target="2AT-N2MCOQDLUG6bidaa-7" edge="1">
          <mxGeometry relative="1" as="geometry" />
        </mxCell>
        <mxCell id="2AT-N2MCOQDLUG6bidaa-42" style="rounded=0;orthogonalLoop=1;jettySize=auto;html=1;entryX=0;entryY=0.5;entryDx=0;entryDy=0;entryPerimeter=0;strokeWidth=2;exitX=1;exitY=1;exitDx=0;exitDy=0;" parent="1" source="2AT-N2MCOQDLUG6bidaa-13" target="2AT-N2MCOQDLUG6bidaa-7" edge="1">
          <mxGeometry relative="1" as="geometry" />
        </mxCell>
        <mxCell id="2AT-N2MCOQDLUG6bidaa-44" value="FineBI" style="rounded=0;whiteSpace=wrap;html=1;fillColor=#d5e8d4;strokeColor=#82b366;fontSize=18;fontStyle=1;gradientColor=#97d077;" parent="1" vertex="1">
          <mxGeometry x="1130" y="657" width="190" height="95" as="geometry" />
        </mxCell>
        <mxCell id="cMIVsSoi3OgTZiZN5WmO-1" value="业务系统" style="rounded=0;whiteSpace=wrap;html=1;fillColor=#d5e8d4;strokeColor=#82b366;fontSize=18;fontStyle=1;gradientColor=#97d077;" parent="1" vertex="1">
          <mxGeometry x="1140" y="-12" width="190" height="95" as="geometry" />
        </mxCell>
        <mxCell id="_satXN_AIVDhDnsFR7mb-1" style="rounded=0;orthogonalLoop=1;jettySize=auto;html=1;entryX=0;entryY=0.5;entryDx=0;entryDy=0;entryPerimeter=0;strokeWidth=2;" parent="1" source="2AT-N2MCOQDLUG6bidaa-1" target="2AT-N2MCOQDLUG6bidaa-5" edge="1">
          <mxGeometry relative="1" as="geometry" />
        </mxCell>
        <mxCell id="JoqvBXKsAsW39Hu79zci-4" value="SAP财务系统" style="rounded=0;whiteSpace=wrap;html=1;fillColor=#d5e8d4;strokeColor=#82b366;fontSize=18;fontStyle=1;gradientColor=#97d077;" parent="1" vertex="1">
          <mxGeometry x="750" y="170" width="190" height="95" as="geometry" />
        </mxCell>
      </root>
    </mxGraphModel>
  </diagram>
  <diagram id="Ccon76R-gDlIcUUKngI2" name="技术架构-V2">
    <mxGraphModel dx="2123" dy="618" grid="1" gridSize="10" guides="1" tooltips="1" connect="1" arrows="1" fold="1" page="1" pageScale="1" pageWidth="1169" pageHeight="827" math="0" shadow="0">
      <root>
        <mxCell id="0" />
        <mxCell id="1" parent="0" />
        <mxCell id="LMlRyxBuPOfSm3XZPdxa-1" style="rounded=0;orthogonalLoop=1;jettySize=auto;html=1;entryX=0.5;entryY=1;entryDx=0;entryDy=0;exitX=0.5;exitY=0;exitDx=0;exitDy=0;strokeWidth=2;" parent="1" source="LMlRyxBuPOfSm3XZPdxa-3" target="LMlRyxBuPOfSm3XZPdxa-17" edge="1">
          <mxGeometry relative="1" as="geometry" />
        </mxCell>
        <mxCell id="LMlRyxBuPOfSm3XZPdxa-48" style="edgeStyle=orthogonalEdgeStyle;rounded=0;orthogonalLoop=1;jettySize=auto;html=1;entryX=0;entryY=0.5;entryDx=0;entryDy=0;strokeWidth=2;" parent="1" source="LMlRyxBuPOfSm3XZPdxa-3" target="LMlRyxBuPOfSm3XZPdxa-38" edge="1">
          <mxGeometry relative="1" as="geometry" />
        </mxCell>
        <mxCell id="LMlRyxBuPOfSm3XZPdxa-3" value="数据中台(私有化)" style="rounded=0;whiteSpace=wrap;html=1;fillColor=#eeeeee;strokeColor=#36393d;verticalAlign=top;fontSize=22;fontStyle=1" parent="1" vertex="1">
          <mxGeometry x="-247" y="459" width="350" height="240" as="geometry" />
        </mxCell>
        <mxCell id="LMlRyxBuPOfSm3XZPdxa-4" value="Dataphin" style="rounded=0;whiteSpace=wrap;html=1;fillColor=#cdeb8b;strokeColor=#36393d;fontStyle=1;fontSize=18;" parent="1" vertex="1">
          <mxGeometry x="-217" y="509" width="290" height="90" as="geometry" />
        </mxCell>
        <mxCell id="LMlRyxBuPOfSm3XZPdxa-5" value="MaxCompute" style="rounded=0;whiteSpace=wrap;html=1;fontStyle=1;fontSize=18;fillColor=#cce5ff;strokeColor=#36393d;" parent="1" vertex="1">
          <mxGeometry x="-217" y="599" width="290" height="81" as="geometry" />
        </mxCell>
        <mxCell id="LMlRyxBuPOfSm3XZPdxa-17" value="Flink" style="rounded=0;whiteSpace=wrap;html=1;fillColor=#1ba1e2;fontColor=#ffffff;strokeColor=#006EAF;fontSize=18;" parent="1" vertex="1">
          <mxGeometry x="80" y="178" width="160" height="80" as="geometry" />
        </mxCell>
        <mxCell id="LMlRyxBuPOfSm3XZPdxa-18" value="Debezium" style="rounded=0;whiteSpace=wrap;html=1;fillColor=#0050ef;fontColor=#ffffff;strokeColor=#001DBC;fontSize=18;" parent="1" vertex="1">
          <mxGeometry x="-469" y="178" width="160" height="80" as="geometry" />
        </mxCell>
        <mxCell id="LMlRyxBuPOfSm3XZPdxa-19" style="edgeStyle=orthogonalEdgeStyle;rounded=0;orthogonalLoop=1;jettySize=auto;html=1;entryX=0;entryY=0.5;entryDx=0;entryDy=0;strokeWidth=2;" parent="1" source="LMlRyxBuPOfSm3XZPdxa-20" target="LMlRyxBuPOfSm3XZPdxa-17" edge="1">
          <mxGeometry relative="1" as="geometry" />
        </mxCell>
        <mxCell id="LMlRyxBuPOfSm3XZPdxa-20" value="kafka" style="shape=cylinder3;whiteSpace=wrap;html=1;boundedLbl=1;backgroundOutline=1;size=15;direction=south;fillColor=#60a917;fontColor=#ffffff;strokeColor=#2D7600;fontSize=18;" parent="1" vertex="1">
          <mxGeometry x="-199" y="173" width="150" height="90" as="geometry" />
        </mxCell>
        <mxCell id="LMlRyxBuPOfSm3XZPdxa-21" style="edgeStyle=orthogonalEdgeStyle;rounded=0;orthogonalLoop=1;jettySize=auto;html=1;entryX=0.5;entryY=1;entryDx=0;entryDy=0;entryPerimeter=0;strokeWidth=2;" parent="1" source="LMlRyxBuPOfSm3XZPdxa-18" target="LMlRyxBuPOfSm3XZPdxa-20" edge="1">
          <mxGeometry relative="1" as="geometry" />
        </mxCell>
        <mxCell id="LMlRyxBuPOfSm3XZPdxa-22" style="edgeStyle=orthogonalEdgeStyle;rounded=0;orthogonalLoop=1;jettySize=auto;html=1;entryX=0;entryY=0.5;entryDx=0;entryDy=0;exitX=1.008;exitY=0.777;exitDx=0;exitDy=0;exitPerimeter=0;strokeWidth=2;" parent="1" source="LMlRyxBuPOfSm3XZPdxa-24" target="LMlRyxBuPOfSm3XZPdxa-3" edge="1">
          <mxGeometry relative="1" as="geometry" />
        </mxCell>
        <mxCell id="LMlRyxBuPOfSm3XZPdxa-23" style="edgeStyle=orthogonalEdgeStyle;rounded=0;orthogonalLoop=1;jettySize=auto;html=1;entryX=0;entryY=0.5;entryDx=0;entryDy=0;exitX=0.998;exitY=0.185;exitDx=0;exitDy=0;exitPerimeter=0;strokeWidth=2;" parent="1" source="LMlRyxBuPOfSm3XZPdxa-24" target="LMlRyxBuPOfSm3XZPdxa-18" edge="1">
          <mxGeometry relative="1" as="geometry" />
        </mxCell>
        <mxCell id="LMlRyxBuPOfSm3XZPdxa-24" value="业务数据" style="rounded=0;whiteSpace=wrap;html=1;fillColor=#eeeeee;strokeColor=#36393d;verticalAlign=top;fontStyle=1;fontSize=22;" parent="1" vertex="1">
          <mxGeometry x="-980" y="106" width="440" height="610" as="geometry" />
        </mxCell>
        <mxCell id="LMlRyxBuPOfSm3XZPdxa-25" value="EWM" style="shape=cylinder3;whiteSpace=wrap;html=1;boundedLbl=1;backgroundOutline=1;size=15;fillColor=#60a917;fontColor=#ffffff;strokeColor=#2D7600;fontSize=18;" parent="1" vertex="1">
          <mxGeometry x="-744" y="191" width="160" height="90" as="geometry" />
        </mxCell>
        <mxCell id="LMlRyxBuPOfSm3XZPdxa-26" value="GIMS" style="shape=cylinder3;whiteSpace=wrap;html=1;boundedLbl=1;backgroundOutline=1;size=15;fillColor=#60a917;fontColor=#ffffff;strokeColor=#2D7600;fontSize=18;" parent="1" vertex="1">
          <mxGeometry x="-944" y="191" width="160" height="90" as="geometry" />
        </mxCell>
        <mxCell id="LMlRyxBuPOfSm3XZPdxa-27" value="IMOS" style="shape=cylinder3;whiteSpace=wrap;html=1;boundedLbl=1;backgroundOutline=1;size=15;fillColor=#60a917;fontColor=#ffffff;strokeColor=#2D7600;fontSize=18;" parent="1" vertex="1">
          <mxGeometry x="-944" y="316" width="160" height="90" as="geometry" />
        </mxCell>
        <mxCell id="LMlRyxBuPOfSm3XZPdxa-28" value="POS" style="shape=cylinder3;whiteSpace=wrap;html=1;boundedLbl=1;backgroundOutline=1;size=15;fillColor=#60a917;fontColor=#ffffff;strokeColor=#2D7600;fontSize=18;" parent="1" vertex="1">
          <mxGeometry x="-744" y="316" width="160" height="90" as="geometry" />
        </mxCell>
        <mxCell id="LMlRyxBuPOfSm3XZPdxa-29" value="OMS" style="shape=cylinder3;whiteSpace=wrap;html=1;boundedLbl=1;backgroundOutline=1;size=15;fillColor=#60a917;fontColor=#ffffff;strokeColor=#2D7600;fontSize=18;" parent="1" vertex="1">
          <mxGeometry x="-944" y="446" width="160" height="90" as="geometry" />
        </mxCell>
        <mxCell id="LMlRyxBuPOfSm3XZPdxa-30" value="SAP" style="shape=cylinder3;whiteSpace=wrap;html=1;boundedLbl=1;backgroundOutline=1;size=15;fillColor=#60a917;fontColor=#ffffff;strokeColor=#2D7600;fontSize=18;" parent="1" vertex="1">
          <mxGeometry x="-744" y="444" width="160" height="90" as="geometry" />
        </mxCell>
        <mxCell id="LMlRyxBuPOfSm3XZPdxa-31" value="CRM" style="shape=cylinder3;whiteSpace=wrap;html=1;boundedLbl=1;backgroundOutline=1;size=15;fillColor=#60a917;fontColor=#ffffff;strokeColor=#2D7600;fontSize=18;" parent="1" vertex="1">
          <mxGeometry x="-944" y="586" width="160" height="90" as="geometry" />
        </mxCell>
        <mxCell id="LMlRyxBuPOfSm3XZPdxa-32" value="DFM" style="shape=cylinder3;whiteSpace=wrap;html=1;boundedLbl=1;backgroundOutline=1;size=15;fillColor=#60a917;fontColor=#ffffff;strokeColor=#2D7600;fontSize=18;" parent="1" vertex="1">
          <mxGeometry x="-744" y="586" width="160" height="90" as="geometry" />
        </mxCell>
        <mxCell id="LMlRyxBuPOfSm3XZPdxa-34" value="业务系统" style="rounded=0;whiteSpace=wrap;html=1;fillColor=#d5e8d4;strokeColor=#82b366;fontSize=18;fontStyle=1;gradientColor=#97d077;" parent="1" vertex="1">
          <mxGeometry x="960" y="364" width="190" height="95" as="geometry" />
        </mxCell>
        <mxCell id="LMlRyxBuPOfSm3XZPdxa-37" value="FineReport" style="rounded=0;whiteSpace=wrap;html=1;fillColor=#d5e8d4;strokeColor=#82b366;fontSize=18;fontStyle=1;gradientColor=#97d077;" parent="1" vertex="1">
          <mxGeometry x="960" y="531" width="190" height="95" as="geometry" />
        </mxCell>
        <mxCell id="LMlRyxBuPOfSm3XZPdxa-45" style="rounded=0;orthogonalLoop=1;jettySize=auto;html=1;entryX=0;entryY=0.5;entryDx=0;entryDy=0;strokeWidth=2;" parent="1" source="LMlRyxBuPOfSm3XZPdxa-38" target="LMlRyxBuPOfSm3XZPdxa-34" edge="1">
          <mxGeometry relative="1" as="geometry">
            <mxPoint x="763" y="402.5" as="targetPoint" />
          </mxGeometry>
        </mxCell>
        <mxCell id="LMlRyxBuPOfSm3XZPdxa-46" style="edgeStyle=orthogonalEdgeStyle;rounded=0;orthogonalLoop=1;jettySize=auto;html=1;strokeWidth=2;" parent="1" source="LMlRyxBuPOfSm3XZPdxa-38" target="LMlRyxBuPOfSm3XZPdxa-37" edge="1">
          <mxGeometry relative="1" as="geometry" />
        </mxCell>
        <mxCell id="LMlRyxBuPOfSm3XZPdxa-47" style="rounded=0;orthogonalLoop=1;jettySize=auto;html=1;entryX=0;entryY=0.5;entryDx=0;entryDy=0;strokeWidth=2;" parent="1" source="LMlRyxBuPOfSm3XZPdxa-38" target="LMlRyxBuPOfSm3XZPdxa-44" edge="1">
          <mxGeometry relative="1" as="geometry" />
        </mxCell>
        <mxCell id="LMlRyxBuPOfSm3XZPdxa-38" value="数据服务" style="rounded=0;whiteSpace=wrap;html=1;fillColor=#eeeeee;strokeColor=#36393d;verticalAlign=top;fontSize=22;fontStyle=1" parent="1" vertex="1">
          <mxGeometry x="140" y="450" width="530" height="258" as="geometry" />
        </mxCell>
        <mxCell id="LMlRyxBuPOfSm3XZPdxa-39" style="rounded=0;orthogonalLoop=1;jettySize=auto;html=1;entryX=0.477;entryY=-0.006;entryDx=0;entryDy=0;entryPerimeter=0;strokeWidth=2;exitX=0.575;exitY=0.989;exitDx=0;exitDy=0;exitPerimeter=0;" parent="1" source="LMlRyxBuPOfSm3XZPdxa-17" target="LMlRyxBuPOfSm3XZPdxa-38" edge="1">
          <mxGeometry relative="1" as="geometry" />
        </mxCell>
        <mxCell id="LMlRyxBuPOfSm3XZPdxa-41" value="Hadoop" style="rounded=0;whiteSpace=wrap;html=1;fillColor=#cdeb8b;strokeColor=#36393d;fontSize=18;" parent="1" vertex="1">
          <mxGeometry x="150" y="619" width="310" height="80" as="geometry" />
        </mxCell>
        <mxCell id="LMlRyxBuPOfSm3XZPdxa-43" value="StarRocks" style="rounded=0;whiteSpace=wrap;html=1;fillColor=#1ba1e2;strokeColor=#006EAF;fontSize=18;fontColor=#ffffff;" parent="1" vertex="1">
          <mxGeometry x="367" y="509" width="103" height="54" as="geometry" />
        </mxCell>
        <mxCell id="LMlRyxBuPOfSm3XZPdxa-44" value="FineBI" style="rounded=0;whiteSpace=wrap;html=1;fillColor=#d5e8d4;strokeColor=#82b366;fontSize=18;fontStyle=1;gradientColor=#97d077;" parent="1" vertex="1">
          <mxGeometry x="960" y="669" width="190" height="95" as="geometry" />
        </mxCell>
        <mxCell id="7DDe1I1jBdTbt5exjTeZ-2" value="StarRocks" style="rounded=0;whiteSpace=wrap;html=1;fillColor=#1ba1e2;strokeColor=#006EAF;fontSize=18;fontColor=#ffffff;" parent="1" vertex="1">
          <mxGeometry x="260" y="509" width="94.5" height="54" as="geometry" />
        </mxCell>
        <mxCell id="7MJOOzLlrnxXSLZujR-5-1" value="Hive" style="rounded=0;whiteSpace=wrap;html=1;fillColor=#008a00;fontColor=#ffffff;strokeColor=#005700;fontSize=18;" parent="1" vertex="1">
          <mxGeometry x="150" y="570" width="309" height="43" as="geometry" />
        </mxCell>
        <mxCell id="7MJOOzLlrnxXSLZujR-5-4" value="Elasticsearch" style="rounded=0;whiteSpace=wrap;html=1;strokeColor=#3A5431;align=center;verticalAlign=middle;fontFamily=Helvetica;fontSize=16;fontColor=#ffffff;fillColor=#6d8764;" parent="1" vertex="1">
          <mxGeometry x="470" y="570" width="110" height="130" as="geometry" />
        </mxCell>
        <mxCell id="7MJOOzLlrnxXSLZujR-5-5" value="StarRocks" style="rounded=0;whiteSpace=wrap;html=1;fillColor=#1ba1e2;strokeColor=#006EAF;fontSize=18;fontColor=#ffffff;" parent="1" vertex="1">
          <mxGeometry x="477" y="509" width="103" height="54" as="geometry" />
        </mxCell>
        <mxCell id="7MJOOzLlrnxXSLZujR-5-6" value="Prometheus +&amp;nbsp;Grafana" style="rounded=0;whiteSpace=wrap;html=1;strokeColor=#BD7000;align=center;verticalAlign=middle;fontFamily=Helvetica;fontSize=16;fontColor=#000000;fillColor=#f0a30a;horizontal=0;" parent="1" vertex="1">
          <mxGeometry x="585" y="506" width="65" height="194" as="geometry" />
        </mxCell>
        <mxCell id="hOEeY-OcoAzyIGLJwmVX-1" value="Trino" style="rounded=0;whiteSpace=wrap;html=1;fillColor=#76608a;strokeColor=#432D57;fontSize=18;fontColor=#ffffff;" parent="1" vertex="1">
          <mxGeometry x="150" y="509" width="100" height="54" as="geometry" />
        </mxCell>
      </root>
    </mxGraphModel>
  </diagram>
  <diagram id="riL3sj5yJPT83yyb2otY" name="技术架构-V3">
    <mxGraphModel dx="2123" dy="618" grid="1" gridSize="10" guides="1" tooltips="1" connect="1" arrows="1" fold="1" page="1" pageScale="1" pageWidth="1169" pageHeight="827" math="0" shadow="0">
      <root>
        <mxCell id="0" />
        <mxCell id="1" parent="0" />
        <mxCell id="GZKRG9MlNy778cCYulQZ-7" value="Debezium" style="rounded=0;whiteSpace=wrap;html=1;fillColor=#0050ef;fontColor=#ffffff;strokeColor=#001DBC;fontSize=16;" parent="1" vertex="1">
          <mxGeometry x="-309" y="241" width="160" height="80" as="geometry" />
        </mxCell>
        <mxCell id="GZKRG9MlNy778cCYulQZ-9" value="kafka" style="shape=cylinder3;whiteSpace=wrap;html=1;boundedLbl=1;backgroundOutline=1;size=15;direction=south;fillColor=#60a917;fontColor=#ffffff;strokeColor=#2D7600;fontSize=16;" parent="1" vertex="1">
          <mxGeometry x="-101" y="236" width="150" height="90" as="geometry" />
        </mxCell>
        <mxCell id="GZKRG9MlNy778cCYulQZ-10" style="edgeStyle=orthogonalEdgeStyle;rounded=0;orthogonalLoop=1;jettySize=auto;html=1;entryX=0.5;entryY=1;entryDx=0;entryDy=0;entryPerimeter=0;strokeWidth=2;" parent="1" source="GZKRG9MlNy778cCYulQZ-7" target="GZKRG9MlNy778cCYulQZ-9" edge="1">
          <mxGeometry relative="1" as="geometry" />
        </mxCell>
        <mxCell id="diHymvM2uXj0NPjtlTtc-18" style="edgeStyle=orthogonalEdgeStyle;rounded=0;orthogonalLoop=1;jettySize=auto;html=1;exitX=1;exitY=0.331;exitDx=0;exitDy=0;exitPerimeter=0;strokeWidth=2;" parent="1" source="GZKRG9MlNy778cCYulQZ-13" target="GZKRG9MlNy778cCYulQZ-7" edge="1">
          <mxGeometry relative="1" as="geometry">
            <mxPoint x="-520" y="205" as="sourcePoint" />
          </mxGeometry>
        </mxCell>
        <mxCell id="diHymvM2uXj0NPjtlTtc-19" style="rounded=0;orthogonalLoop=1;jettySize=auto;html=1;entryX=0;entryY=0.5;entryDx=0;entryDy=0;strokeWidth=2;" parent="1" target="diHymvM2uXj0NPjtlTtc-12" edge="1">
          <mxGeometry relative="1" as="geometry">
            <mxPoint x="-520" y="419" as="sourcePoint" />
          </mxGeometry>
        </mxCell>
        <mxCell id="GZKRG9MlNy778cCYulQZ-13" value="业务数据" style="rounded=0;whiteSpace=wrap;html=1;fillColor=#eeeeee;strokeColor=#36393d;verticalAlign=top;fontStyle=1;fontSize=22;" parent="1" vertex="1">
          <mxGeometry x="-733" y="189" width="360" height="280" as="geometry" />
        </mxCell>
        <mxCell id="GZKRG9MlNy778cCYulQZ-14" value="EWM" style="shape=cylinder3;whiteSpace=wrap;html=1;boundedLbl=1;backgroundOutline=1;size=15;fillColor=#60a917;fontColor=#ffffff;strokeColor=#2D7600;fontSize=16;" parent="1" vertex="1">
          <mxGeometry x="-601" y="232.1" width="100" height="60" as="geometry" />
        </mxCell>
        <mxCell id="GZKRG9MlNy778cCYulQZ-15" value="GIMS" style="shape=cylinder3;whiteSpace=wrap;html=1;boundedLbl=1;backgroundOutline=1;size=15;fillColor=#60a917;fontColor=#ffffff;strokeColor=#2D7600;fontSize=16;aspect=fixed;" parent="1" vertex="1">
          <mxGeometry x="-723.83" y="236" width="100.83" height="56.1" as="geometry" />
        </mxCell>
        <mxCell id="GZKRG9MlNy778cCYulQZ-16" value="IMOS" style="shape=cylinder3;whiteSpace=wrap;html=1;boundedLbl=1;backgroundOutline=1;size=15;fillColor=#60a917;fontColor=#ffffff;strokeColor=#2D7600;fontSize=16;" parent="1" vertex="1">
          <mxGeometry x="-483" y="232.1" width="100" height="60" as="geometry" />
        </mxCell>
        <mxCell id="GZKRG9MlNy778cCYulQZ-17" value="POS" style="shape=cylinder3;whiteSpace=wrap;html=1;boundedLbl=1;backgroundOutline=1;size=15;fillColor=#60a917;fontColor=#ffffff;strokeColor=#2D7600;fontSize=16;" parent="1" vertex="1">
          <mxGeometry x="-601" y="310.5" width="100" height="60" as="geometry" />
        </mxCell>
        <mxCell id="GZKRG9MlNy778cCYulQZ-18" value="OMS" style="shape=cylinder3;whiteSpace=wrap;html=1;boundedLbl=1;backgroundOutline=1;size=15;fillColor=#60a917;fontColor=#ffffff;strokeColor=#2D7600;fontSize=16;" parent="1" vertex="1">
          <mxGeometry x="-723" y="310.5" width="100" height="60" as="geometry" />
        </mxCell>
        <mxCell id="GZKRG9MlNy778cCYulQZ-19" value="SAP" style="shape=cylinder3;whiteSpace=wrap;html=1;boundedLbl=1;backgroundOutline=1;size=15;fillColor=#60a917;fontColor=#ffffff;strokeColor=#2D7600;fontSize=16;" parent="1" vertex="1">
          <mxGeometry x="-483" y="310" width="100" height="60" as="geometry" />
        </mxCell>
        <mxCell id="GZKRG9MlNy778cCYulQZ-20" value="CRM" style="shape=cylinder3;whiteSpace=wrap;html=1;boundedLbl=1;backgroundOutline=1;size=15;fillColor=#60a917;fontColor=#ffffff;strokeColor=#2D7600;fontSize=16;" parent="1" vertex="1">
          <mxGeometry x="-693" y="382" width="100" height="60" as="geometry" />
        </mxCell>
        <mxCell id="GZKRG9MlNy778cCYulQZ-21" value="DFM" style="shape=cylinder3;whiteSpace=wrap;html=1;boundedLbl=1;backgroundOutline=1;size=15;fillColor=#60a917;fontColor=#ffffff;strokeColor=#2D7600;fontSize=16;" parent="1" vertex="1">
          <mxGeometry x="-511" y="382" width="100" height="60" as="geometry" />
        </mxCell>
        <mxCell id="GZKRG9MlNy778cCYulQZ-27" value="数据中台" style="rounded=0;whiteSpace=wrap;html=1;fillColor=#eeeeee;strokeColor=#36393d;verticalAlign=top;fontSize=16;fontStyle=1" parent="1" vertex="1">
          <mxGeometry x="120" y="194" width="590" height="400" as="geometry" />
        </mxCell>
        <mxCell id="GZKRG9MlNy778cCYulQZ-30" value="Hadoop" style="rounded=0;whiteSpace=wrap;html=1;fillColor=#cdeb8b;strokeColor=#36393d;fontSize=16;verticalAlign=middle;fontStyle=0" parent="1" vertex="1">
          <mxGeometry x="125" y="519" width="355" height="70" as="geometry" />
        </mxCell>
        <mxCell id="GZKRG9MlNy778cCYulQZ-41" value="DolphinScheduler" style="rounded=0;whiteSpace=wrap;html=1;fillColor=#ffe6cc;strokeColor=#d79b00;horizontal=0;fontSize=16;" parent="1" vertex="1">
          <mxGeometry x="125" y="240" width="70" height="276" as="geometry" />
        </mxCell>
        <mxCell id="GZKRG9MlNy778cCYulQZ-42" value="Hive" style="rounded=0;whiteSpace=wrap;html=1;fillColor=#008a00;strokeColor=#005700;fontSize=16;direction=south;fontColor=#ffffff;" parent="1" vertex="1">
          <mxGeometry x="202" y="401.5" width="98" height="35" as="geometry" />
        </mxCell>
        <mxCell id="diHymvM2uXj0NPjtlTtc-1" value="离线计算引擎" style="rounded=0;whiteSpace=wrap;html=1;align=center;verticalAlign=top;horizontal=1;textDirection=ltr;labelPosition=center;verticalLabelPosition=middle;fontStyle=1;fillColor=#d5e8d4;strokeColor=#82b366;fontSize=16;" parent="1" vertex="1">
          <mxGeometry x="202" y="444" width="150" height="72" as="geometry" />
        </mxCell>
        <mxCell id="diHymvM2uXj0NPjtlTtc-3" value="Spark" style="rounded=0;whiteSpace=wrap;html=1;fillColor=#b0e3e6;strokeColor=#0e8088;fontStyle=0;fontSize=16;" parent="1" vertex="1">
          <mxGeometry x="276" y="476" width="70" height="38" as="geometry" />
        </mxCell>
        <mxCell id="diHymvM2uXj0NPjtlTtc-4" value="实时计算引擎" style="rounded=0;whiteSpace=wrap;html=1;align=center;verticalAlign=top;horizontal=1;textDirection=ltr;labelPosition=center;verticalLabelPosition=middle;fontStyle=1;fillColor=#f5f5f5;strokeColor=#666666;fontColor=#333333;fontSize=16;" parent="1" vertex="1">
          <mxGeometry x="360" y="444" width="120" height="72" as="geometry" />
        </mxCell>
        <mxCell id="GZKRG9MlNy778cCYulQZ-39" value="Flink" style="rounded=0;whiteSpace=wrap;html=1;fillColor=#e1d5e7;strokeColor=#9673a6;fontStyle=0;fontSize=16;" parent="1" vertex="1">
          <mxGeometry x="372.72" y="476" width="94.56" height="38" as="geometry" />
        </mxCell>
        <mxCell id="diHymvM2uXj0NPjtlTtc-7" value="数据服务" style="rounded=0;whiteSpace=wrap;html=1;align=center;fontStyle=1;fillColor=#d5e8d4;strokeColor=#82b366;verticalAlign=top;fontSize=16;" parent="1" vertex="1">
          <mxGeometry x="203.56" y="320" width="432.87" height="73.5" as="geometry" />
        </mxCell>
        <mxCell id="diHymvM2uXj0NPjtlTtc-12" value="DataX" style="rounded=0;whiteSpace=wrap;html=1;fillColor=#cdeb8b;strokeColor=#36393d;fontStyle=0;fontSize=16;" parent="1" vertex="1">
          <mxGeometry x="-201" y="382" width="140" height="74" as="geometry" />
        </mxCell>
        <mxCell id="diHymvM2uXj0NPjtlTtc-23" style="edgeStyle=orthogonalEdgeStyle;rounded=0;orthogonalLoop=1;jettySize=auto;html=1;entryX=0;entryY=0.5;entryDx=0;entryDy=0;strokeWidth=2;" parent="1" source="diHymvM2uXj0NPjtlTtc-14" target="diHymvM2uXj0NPjtlTtc-22" edge="1">
          <mxGeometry relative="1" as="geometry" />
        </mxCell>
        <mxCell id="diHymvM2uXj0NPjtlTtc-14" value="日志/文件" style="rounded=0;whiteSpace=wrap;html=1;fillColor=#eeeeee;strokeColor=#36393d;verticalAlign=top;fontSize=22;" parent="1" vertex="1">
          <mxGeometry x="-733" y="510" width="360" height="93" as="geometry" />
        </mxCell>
        <mxCell id="diHymvM2uXj0NPjtlTtc-17" value="图像文件" style="rounded=0;whiteSpace=wrap;html=1;" parent="1" vertex="1">
          <mxGeometry x="-490" y="554" width="94" height="35" as="geometry" />
        </mxCell>
        <mxCell id="diHymvM2uXj0NPjtlTtc-20" style="edgeStyle=orthogonalEdgeStyle;rounded=0;orthogonalLoop=1;jettySize=auto;html=1;entryX=-0.003;entryY=0.219;entryDx=0;entryDy=0;entryPerimeter=0;strokeWidth=2;" parent="1" source="GZKRG9MlNy778cCYulQZ-9" target="GZKRG9MlNy778cCYulQZ-27" edge="1">
          <mxGeometry relative="1" as="geometry">
            <mxPoint x="116" y="210" as="targetPoint" />
            <Array as="points" />
          </mxGeometry>
        </mxCell>
        <mxCell id="diHymvM2uXj0NPjtlTtc-21" style="edgeStyle=orthogonalEdgeStyle;rounded=0;orthogonalLoop=1;jettySize=auto;html=1;entryX=-0.007;entryY=0.564;entryDx=0;entryDy=0;entryPerimeter=0;strokeWidth=2;" parent="1" source="diHymvM2uXj0NPjtlTtc-12" target="GZKRG9MlNy778cCYulQZ-27" edge="1">
          <mxGeometry relative="1" as="geometry" />
        </mxCell>
        <mxCell id="diHymvM2uXj0NPjtlTtc-22" value="Flume" style="rounded=0;whiteSpace=wrap;html=1;fillColor=#cdeb8b;strokeColor=#36393d;fontStyle=0;fontSize=16;" parent="1" vertex="1">
          <mxGeometry x="-191" y="527" width="120" height="60" as="geometry" />
        </mxCell>
        <mxCell id="diHymvM2uXj0NPjtlTtc-24" style="edgeStyle=orthogonalEdgeStyle;rounded=0;orthogonalLoop=1;jettySize=auto;html=1;entryX=-0.005;entryY=0.907;entryDx=0;entryDy=0;entryPerimeter=0;strokeWidth=2;" parent="1" source="diHymvM2uXj0NPjtlTtc-22" target="GZKRG9MlNy778cCYulQZ-27" edge="1">
          <mxGeometry relative="1" as="geometry" />
        </mxCell>
        <mxCell id="diHymvM2uXj0NPjtlTtc-29" value="Hudi" style="rounded=0;whiteSpace=wrap;html=1;fillColor=#008a00;strokeColor=#005700;fontSize=16;fontColor=#ffffff;" parent="1" vertex="1">
          <mxGeometry x="304" y="401.5" width="86" height="35" as="geometry" />
        </mxCell>
        <mxCell id="diHymvM2uXj0NPjtlTtc-30" value="展现服务" style="rounded=0;whiteSpace=wrap;html=1;verticalAlign=top;fillColor=#f9f7ed;strokeColor=#36393d;fontStyle=1;fontSize=16;" parent="1" vertex="1">
          <mxGeometry x="203.56" y="240" width="436" height="76" as="geometry" />
        </mxCell>
        <mxCell id="diHymvM2uXj0NPjtlTtc-33" value="业务日志" style="rounded=0;whiteSpace=wrap;html=1;" parent="1" vertex="1">
          <mxGeometry x="-710" y="554" width="90" height="35" as="geometry" />
        </mxCell>
        <mxCell id="diHymvM2uXj0NPjtlTtc-34" value="业务文件" style="rounded=0;whiteSpace=wrap;html=1;" parent="1" vertex="1">
          <mxGeometry x="-601" y="554" width="90" height="35" as="geometry" />
        </mxCell>
        <mxCell id="diHymvM2uXj0NPjtlTtc-35" value="Prometheus +&amp;nbsp;Grafana" style="rounded=0;whiteSpace=wrap;html=1;horizontal=0;fontSize=16;fillColor=#ffcc99;strokeColor=#36393d;" parent="1" vertex="1">
          <mxGeometry x="647" y="240" width="56" height="350" as="geometry" />
        </mxCell>
        <mxCell id="diHymvM2uXj0NPjtlTtc-43" value="API 服务" style="rounded=0;whiteSpace=wrap;html=1;fontSize=16;" parent="1" vertex="1">
          <mxGeometry x="211" y="279.5" width="80" height="31" as="geometry" />
        </mxCell>
        <mxCell id="diHymvM2uXj0NPjtlTtc-45" value="报表" style="rounded=0;whiteSpace=wrap;html=1;fontSize=16;" parent="1" vertex="1">
          <mxGeometry x="297" y="279" width="70" height="31" as="geometry" />
        </mxCell>
        <mxCell id="diHymvM2uXj0NPjtlTtc-46" value="智能BI" style="rounded=0;whiteSpace=wrap;html=1;fontSize=16;" parent="1" vertex="1">
          <mxGeometry x="375" y="279.5" width="80" height="31" as="geometry" />
        </mxCell>
        <mxCell id="0qJPJvPHZj00gFN8b1BR-1" value="Elasticsearch" style="rounded=0;whiteSpace=wrap;html=1;strokeColor=#3A5431;align=center;verticalAlign=middle;fontFamily=Helvetica;fontSize=16;fontColor=#ffffff;fillColor=#6d8764;" parent="1" vertex="1">
          <mxGeometry x="490" y="400" width="150" height="190" as="geometry" />
        </mxCell>
        <mxCell id="0qJPJvPHZj00gFN8b1BR-2" value="Tez" style="rounded=0;whiteSpace=wrap;html=1;fillColor=#b0e3e6;strokeColor=#0e8088;fontStyle=0;fontSize=16;" parent="1" vertex="1">
          <mxGeometry x="206" y="476" width="66" height="38" as="geometry" />
        </mxCell>
        <mxCell id="0qJPJvPHZj00gFN8b1BR-3" value="Paimon" style="rounded=0;whiteSpace=wrap;html=1;fillColor=#008a00;strokeColor=#005700;fontSize=16;fontColor=#ffffff;" parent="1" vertex="1">
          <mxGeometry x="395" y="401.5" width="86" height="35" as="geometry" />
        </mxCell>
        <mxCell id="0qJPJvPHZj00gFN8b1BR-4" value="StarRocks" style="rounded=0;whiteSpace=wrap;html=1;fillColor=#1ba1e2;fontColor=#ffffff;strokeColor=#006EAF;fontSize=16;" parent="1" vertex="1">
          <mxGeometry x="276" y="352.5" width="80" height="35" as="geometry" />
        </mxCell>
        <mxCell id="0qJPJvPHZj00gFN8b1BR-5" value="StarRocks" style="rounded=0;whiteSpace=wrap;html=1;fillColor=#1ba1e2;fontColor=#ffffff;strokeColor=#006EAF;fontSize=16;" parent="1" vertex="1">
          <mxGeometry x="366.01" y="352.5" width="80" height="35" as="geometry" />
        </mxCell>
        <mxCell id="0qJPJvPHZj00gFN8b1BR-6" value="StarRocks" style="rounded=0;whiteSpace=wrap;html=1;fillColor=#1ba1e2;fontColor=#ffffff;strokeColor=#006EAF;fontSize=16;" parent="1" vertex="1">
          <mxGeometry x="460" y="352.5" width="80" height="35" as="geometry" />
        </mxCell>
        <mxCell id="0qJPJvPHZj00gFN8b1BR-7" value="StarRocks" style="rounded=0;whiteSpace=wrap;html=1;fillColor=#1ba1e2;fontColor=#ffffff;strokeColor=#006EAF;fontSize=16;" parent="1" vertex="1">
          <mxGeometry x="550.01" y="352.5" width="80" height="35" as="geometry" />
        </mxCell>
        <mxCell id="cnEQW9ICw9Wd6-dj-eof-1" value="Trino" style="rounded=0;whiteSpace=wrap;html=1;fillColor=#76608a;strokeColor=#432D57;fontSize=18;fontColor=#ffffff;" parent="1" vertex="1">
          <mxGeometry x="212" y="352" width="60" height="35" as="geometry" />
        </mxCell>
        <mxCell id="GtE8VOELlRZtUiv4PmC4-1" value="移动端" style="rounded=0;whiteSpace=wrap;html=1;fontSize=16;" parent="1" vertex="1">
          <mxGeometry x="460" y="279.5" width="80" height="31" as="geometry" />
        </mxCell>
        <mxCell id="GtE8VOELlRZtUiv4PmC4-2" value="实时大屏" style="rounded=0;whiteSpace=wrap;html=1;fontSize=16;" parent="1" vertex="1">
          <mxGeometry x="550.01" y="279.5" width="80" height="31" as="geometry" />
        </mxCell>
      </root>
    </mxGraphModel>
  </diagram>
  <diagram id="E_5DlD98RuaU7V2ESCvh" name="流批一体架构">
    <mxGraphModel dx="4025" dy="1807" grid="1" gridSize="10" guides="1" tooltips="1" connect="1" arrows="1" fold="1" page="1" pageScale="1" pageWidth="1169" pageHeight="827" math="0" shadow="0">
      <root>
        <mxCell id="0" />
        <mxCell id="1" parent="0" />
        <mxCell id="35jLUxYzNGx2wIPelwP7-1" value="数据应用" style="rounded=0;whiteSpace=wrap;html=1;fillColor=#eeeeee;strokeColor=#36393d;verticalAlign=top;fontStyle=1;fontSize=22;" vertex="1" parent="1">
          <mxGeometry x="670" y="-390" width="324.57" height="540" as="geometry" />
        </mxCell>
        <mxCell id="35jLUxYzNGx2wIPelwP7-2" value="OSS" style="rounded=0;whiteSpace=wrap;html=1;fillColor=#eeeeee;horizontal=1;verticalAlign=bottom;fontSize=36;strokeColor=#36393d;fontStyle=1" vertex="1" parent="1">
          <mxGeometry x="-750" y="360" width="680" height="230" as="geometry" />
        </mxCell>
        <mxCell id="35jLUxYzNGx2wIPelwP7-4" style="rounded=0;orthogonalLoop=1;jettySize=auto;html=1;entryX=0;entryY=0.5;entryDx=0;entryDy=0;strokeWidth=2;exitX=1.005;exitY=0.815;exitDx=0;exitDy=0;exitPerimeter=0;" edge="1" parent="1" source="35jLUxYzNGx2wIPelwP7-8" target="35jLUxYzNGx2wIPelwP7-28">
          <mxGeometry relative="1" as="geometry" />
        </mxCell>
        <mxCell id="35jLUxYzNGx2wIPelwP7-5" value="实时采集" style="edgeLabel;html=1;align=center;verticalAlign=middle;resizable=0;points=[];fontSize=22;" vertex="1" connectable="0" parent="35jLUxYzNGx2wIPelwP7-4">
          <mxGeometry x="-0.0569" y="1" relative="1" as="geometry">
            <mxPoint as="offset" />
          </mxGeometry>
        </mxCell>
        <mxCell id="35jLUxYzNGx2wIPelwP7-8" value="业务库" style="rounded=0;whiteSpace=wrap;html=1;fillColor=#f5f5f5;fontColor=#333333;strokeColor=#666666;fontSize=22;verticalAlign=top;fontStyle=1" vertex="1" parent="1">
          <mxGeometry x="-1720" y="-70" width="400" height="710" as="geometry" />
        </mxCell>
        <mxCell id="35jLUxYzNGx2wIPelwP7-21" value="帆软报表" style="rounded=0;whiteSpace=wrap;html=1;fillColor=#fff2cc;strokeColor=#d6b656;strokeWidth=2;fontSize=22;fontStyle=1" vertex="1" parent="1">
          <mxGeometry x="759.9999999999999" y="224.5" width="200" height="100" as="geometry" />
        </mxCell>
        <mxCell id="35jLUxYzNGx2wIPelwP7-22" value="IMOS系统" style="rounded=0;whiteSpace=wrap;html=1;fillColor=#e1d5e7;strokeColor=#9673a6;fontSize=22;fontStyle=0;strokeWidth=2;" vertex="1" parent="1">
          <mxGeometry x="739.5699999999999" y="-325" width="190" height="90" as="geometry" />
        </mxCell>
        <mxCell id="35jLUxYzNGx2wIPelwP7-23" value="OMS系统" style="rounded=0;whiteSpace=wrap;html=1;fillColor=#fad9d5;strokeColor=#ae4132;fontSize=22;fontStyle=0;strokeWidth=2;" vertex="1" parent="1">
          <mxGeometry x="737.29" y="-190" width="190" height="90" as="geometry" />
        </mxCell>
        <mxCell id="35jLUxYzNGx2wIPelwP7-24" value="RMS系统" style="rounded=0;whiteSpace=wrap;html=1;fillColor=#bac8d3;strokeColor=#23445d;fontSize=22;fontStyle=0;strokeWidth=2;" vertex="1" parent="1">
          <mxGeometry x="739.5699999999999" y="-74.5" width="190" height="90" as="geometry" />
        </mxCell>
        <mxCell id="35jLUxYzNGx2wIPelwP7-25" value="会员业务系统" style="rounded=0;whiteSpace=wrap;html=1;fillColor=#ffe6cc;strokeColor=#d79b00;fontSize=22;fontStyle=0;strokeWidth=2;" vertex="1" parent="1">
          <mxGeometry x="737.29" y="40" width="190" height="90" as="geometry" />
        </mxCell>
        <mxCell id="WUYyN_LHip4VY7LbNaXj-2" style="edgeStyle=orthogonalEdgeStyle;rounded=0;orthogonalLoop=1;jettySize=auto;html=1;entryX=0;entryY=0.5;entryDx=0;entryDy=0;" edge="1" parent="1" source="35jLUxYzNGx2wIPelwP7-27" target="WUYyN_LHip4VY7LbNaXj-1">
          <mxGeometry relative="1" as="geometry" />
        </mxCell>
        <mxCell id="35jLUxYzNGx2wIPelwP7-27" value="Kafka" style="shape=cylinder3;whiteSpace=wrap;html=1;boundedLbl=1;backgroundOutline=1;size=15;rotation=90;fillColor=#d5e8d4;strokeColor=#82b366;fontSize=22;horizontal=0;" vertex="1" parent="1">
          <mxGeometry x="-960" y="432.5" width="90" height="147.5" as="geometry" />
        </mxCell>
        <mxCell id="35jLUxYzNGx2wIPelwP7-28" value="Debezium&amp;nbsp;" style="rounded=0;whiteSpace=wrap;html=1;fillColor=#dae8fc;strokeColor=#6c8ebf;fontStyle=0;fontSize=22;" vertex="1" parent="1">
          <mxGeometry x="-1180" y="470" width="150" height="72.5" as="geometry" />
        </mxCell>
        <mxCell id="35jLUxYzNGx2wIPelwP7-29" value="PG-IMOS" style="shape=cylinder3;whiteSpace=wrap;html=1;boundedLbl=1;backgroundOutline=1;size=15;fillColor=#d5e8d4;strokeColor=#82b366;fontSize=22;" vertex="1" parent="1">
          <mxGeometry x="-1690" y="20" width="150" height="100" as="geometry" />
        </mxCell>
        <mxCell id="35jLUxYzNGx2wIPelwP7-30" style="edgeStyle=orthogonalEdgeStyle;rounded=0;orthogonalLoop=1;jettySize=auto;html=1;entryX=0.5;entryY=1;entryDx=0;entryDy=0;entryPerimeter=0;" edge="1" parent="1" source="35jLUxYzNGx2wIPelwP7-28" target="35jLUxYzNGx2wIPelwP7-27">
          <mxGeometry relative="1" as="geometry" />
        </mxCell>
        <mxCell id="35jLUxYzNGx2wIPelwP7-31" value="PG-POS" style="shape=cylinder3;whiteSpace=wrap;html=1;boundedLbl=1;backgroundOutline=1;size=15;fillColor=#d5e8d4;strokeColor=#82b366;fontSize=22;" vertex="1" parent="1">
          <mxGeometry x="-1690" y="160" width="150" height="100" as="geometry" />
        </mxCell>
        <mxCell id="35jLUxYzNGx2wIPelwP7-56" style="edgeStyle=orthogonalEdgeStyle;rounded=0;orthogonalLoop=1;jettySize=auto;html=1;entryX=0;entryY=0.5;entryDx=0;entryDy=0;" edge="1" parent="1" source="35jLUxYzNGx2wIPelwP7-32" target="35jLUxYzNGx2wIPelwP7-55">
          <mxGeometry relative="1" as="geometry" />
        </mxCell>
        <mxCell id="35jLUxYzNGx2wIPelwP7-32" value="PG-GIMS" style="shape=cylinder3;whiteSpace=wrap;html=1;boundedLbl=1;backgroundOutline=1;size=15;fillColor=#d5e8d4;strokeColor=#82b366;fontSize=22;" vertex="1" parent="1">
          <mxGeometry x="-1490" y="165.5" width="150" height="100" as="geometry" />
        </mxCell>
        <mxCell id="35jLUxYzNGx2wIPelwP7-33" value="PG-CRM" style="shape=cylinder3;whiteSpace=wrap;html=1;boundedLbl=1;backgroundOutline=1;size=15;fillColor=#d5e8d4;strokeColor=#82b366;fontSize=22;" vertex="1" parent="1">
          <mxGeometry x="-1690" y="310" width="150" height="100" as="geometry" />
        </mxCell>
        <mxCell id="35jLUxYzNGx2wIPelwP7-34" value="PG-RMS" style="shape=cylinder3;whiteSpace=wrap;html=1;boundedLbl=1;backgroundOutline=1;size=15;fillColor=#d5e8d4;strokeColor=#82b366;fontSize=22;" vertex="1" parent="1">
          <mxGeometry x="-1490" y="20" width="150" height="100" as="geometry" />
        </mxCell>
        <mxCell id="35jLUxYzNGx2wIPelwP7-35" value="PG-EWM" style="shape=cylinder3;whiteSpace=wrap;html=1;boundedLbl=1;backgroundOutline=1;size=15;fillColor=#d5e8d4;strokeColor=#82b366;fontSize=22;" vertex="1" parent="1">
          <mxGeometry x="-1490" y="310" width="150" height="100" as="geometry" />
        </mxCell>
        <mxCell id="35jLUxYzNGx2wIPelwP7-36" value="PG-ICC" style="shape=cylinder3;whiteSpace=wrap;html=1;boundedLbl=1;backgroundOutline=1;size=15;fillColor=#d5e8d4;strokeColor=#82b366;fontSize=22;" vertex="1" parent="1">
          <mxGeometry x="-1700" y="470" width="150" height="100" as="geometry" />
        </mxCell>
        <mxCell id="35jLUxYzNGx2wIPelwP7-37" value="PG-OMS" style="shape=cylinder3;whiteSpace=wrap;html=1;boundedLbl=1;backgroundOutline=1;size=15;fillColor=#d5e8d4;strokeColor=#82b366;fontSize=22;" vertex="1" parent="1">
          <mxGeometry x="-1500" y="470" width="150" height="100" as="geometry" />
        </mxCell>
        <mxCell id="35jLUxYzNGx2wIPelwP7-43" style="edgeStyle=orthogonalEdgeStyle;rounded=0;orthogonalLoop=1;jettySize=auto;html=1;entryX=0;entryY=0.5;entryDx=0;entryDy=0;fontSize=16;" edge="1" parent="1" source="35jLUxYzNGx2wIPelwP7-45" target="35jLUxYzNGx2wIPelwP7-1">
          <mxGeometry relative="1" as="geometry" />
        </mxCell>
        <mxCell id="35jLUxYzNGx2wIPelwP7-44" value="JDBC" style="edgeLabel;html=1;align=center;verticalAlign=middle;resizable=0;points=[];fontSize=16;" vertex="1" connectable="0" parent="35jLUxYzNGx2wIPelwP7-43">
          <mxGeometry x="0.137" y="-1" relative="1" as="geometry">
            <mxPoint as="offset" />
          </mxGeometry>
        </mxCell>
        <mxCell id="35jLUxYzNGx2wIPelwP7-45" value="PG-业务数据服务" style="shape=cylinder3;whiteSpace=wrap;html=1;boundedLbl=1;backgroundOutline=1;size=15;fillColor=#d5e8d4;strokeColor=#82b366;fontSize=22;fontStyle=0;strokeWidth=2;" vertex="1" parent="1">
          <mxGeometry x="304" y="-180" width="220" height="120" as="geometry" />
        </mxCell>
        <mxCell id="35jLUxYzNGx2wIPelwP7-48" value="智能BI" style="rounded=0;whiteSpace=wrap;html=1;fontSize=22;fillColor=#e1d5e7;strokeColor=#9673a6;fontStyle=1" vertex="1" parent="1">
          <mxGeometry x="760" y="520" width="200" height="100" as="geometry" />
        </mxCell>
        <mxCell id="35jLUxYzNGx2wIPelwP7-55" value="DataX" style="rounded=0;whiteSpace=wrap;html=1;fillColor=#dae8fc;strokeColor=#6c8ebf;fontStyle=0;fontSize=22;" vertex="1" parent="1">
          <mxGeometry x="-1200" y="179.25" width="170" height="72.5" as="geometry" />
        </mxCell>
        <mxCell id="35jLUxYzNGx2wIPelwP7-57" value="maxcompute" style="rounded=0;whiteSpace=wrap;html=1;fillColor=#dae8fc;strokeColor=#6c8ebf;fontSize=32;fontStyle=1" vertex="1" parent="1">
          <mxGeometry x="-400" y="210" width="330" height="150" as="geometry" />
        </mxCell>
        <mxCell id="WUYyN_LHip4VY7LbNaXj-1" value="Flink 实时计算" style="rounded=0;whiteSpace=wrap;html=1;fontStyle=1;fontSize=22;fillColor=#ffe6cc;strokeColor=#d79b00;" vertex="1" parent="1">
          <mxGeometry x="-750" y="210" width="350" height="150" as="geometry" />
        </mxCell>
        <mxCell id="WUYyN_LHip4VY7LbNaXj-3" value="ODS" style="rounded=0;whiteSpace=wrap;html=1;fillColor=#d5e8d4;strokeColor=#82b366;fontStyle=1;fontSize=22;" vertex="1" parent="1">
          <mxGeometry x="-750" y="360" width="170" height="150" as="geometry" />
        </mxCell>
        <mxCell id="WUYyN_LHip4VY7LbNaXj-4" value="DIM" style="rounded=0;whiteSpace=wrap;html=1;fillColor=#e1d5e7;strokeColor=#9673a6;fontStyle=1;fontSize=22;" vertex="1" parent="1">
          <mxGeometry x="-580" y="360" width="170" height="70" as="geometry" />
        </mxCell>
        <mxCell id="WUYyN_LHip4VY7LbNaXj-5" value="DWD" style="rounded=0;whiteSpace=wrap;html=1;fillColor=#e1d5e7;strokeColor=#9673a6;fontStyle=1;fontSize=22;" vertex="1" parent="1">
          <mxGeometry x="-580" y="430" width="170" height="80" as="geometry" />
        </mxCell>
        <mxCell id="WUYyN_LHip4VY7LbNaXj-6" value="DWS" style="rounded=0;whiteSpace=wrap;html=1;fillColor=#d5e8d4;strokeColor=#82b366;fontStyle=1;fontSize=22;" vertex="1" parent="1">
          <mxGeometry x="-410" y="360" width="170" height="150" as="geometry" />
        </mxCell>
        <mxCell id="WUYyN_LHip4VY7LbNaXj-7" value="ADS" style="rounded=0;whiteSpace=wrap;html=1;fillColor=#d5e8d4;strokeColor=#82b366;fontStyle=1;fontSize=22;" vertex="1" parent="1">
          <mxGeometry x="-240" y="360" width="170" height="150" as="geometry" />
        </mxCell>
      </root>
    </mxGraphModel>
  </diagram>
</mxfile>
